<svg width="14" height="13" viewBox="0 0 14 13" fill="none" xmlns="http://www.w3.org/2000/svg">
<path d="M6.7505 0C3.22945 0 0.364838 2.05024 0.364838 4.57031C0.364838 5.42176 0.694374 6.2527 1.31804 6.97359L6.38702 12.82C6.48412 12.932 6.65518 13 6.83916 13C6.84058 13 6.84196 13 6.84338 13C7.02895 12.999 7.20037 12.9288 7.2957 12.8149L12.2355 6.91184C12.8247 6.20618 13.1362 5.3965 13.1362 4.57031C13.1362 2.05024 10.2716 0 6.7505 0ZM11.3221 6.52077L6.83111 11.8875L2.22261 6.57226C1.70349 5.97223 1.42202 5.27998 1.42202 4.57031C1.42202 2.47025 3.81629 0.756641 6.7505 0.756641C9.68472 0.756641 12.0754 2.47025 12.0754 4.57031C12.0754 5.25893 11.8125 5.93348 11.3221 6.52077Z" fill="#9B9B9B"/>
</svg>
